<svg width="592" height="594" viewBox="0 0 592 594" fill="none" xmlns="http://www.w3.org/2000/svg">
<rect width="592" height="594" fill="#E5E5E5"/>
<rect width="592" height="594" fill="black" fill-opacity="0.03"/>
<path d="M213.9 438.4C213.9 440.4 211.6 442 208.7 442C205.4 442.3 203.1 440.7 203.1 438.4C203.1 436.4 205.4 434.8 208.3 434.8C211.3 434.5 213.9 436.1 213.9 438.4ZM182.8 433.9C182.1 435.9 184.1 438.2 187.1 438.8C189.7 439.8 192.7 438.8 193.3 436.8C193.9 434.8 192 432.5 189 431.6C186.4 430.9 183.5 431.9 182.8 433.9ZM227 432.2C224.1 432.9 222.1 434.8 222.4 437.1C222.7 439.1 225.3 440.4 228.3 439.7C231.2 439 233.2 437.1 232.9 435.1C232.6 433.2 229.9 431.9 227 432.2ZM292.8 49C154.1 49 48 154.3 48 293C48 403.9 117.8 498.8 217.5 532.2C230.3 534.5 234.8 526.6 234.8 520.1C234.8 513.9 234.5 479.7 234.5 458.7C234.5 458.7 164.5 473.7 149.8 428.9C149.8 428.9 138.4 399.8 122 392.3C122 392.3 99.1 376.6 123.6 376.9C123.6 376.9 148.5 378.9 162.2 402.7C184.1 441.3 220.8 430.2 235.1 423.6C237.4 407.6 243.9 396.5 251.1 389.9C195.2 383.7 138.8 375.6 138.8 279.4C138.8 251.9 146.4 238.1 162.4 220.5C159.8 214 151.3 187.2 165 152.6C185.9 146.1 234 179.6 234 179.6C254 174 275.5 171.1 296.8 171.1C318.1 171.1 339.6 174 359.6 179.6C359.6 179.6 407.7 146 428.6 152.6C442.3 187.3 433.8 214 431.2 220.5C447.2 238.2 457 252 457 279.4C457 375.9 398.1 383.6 342.2 389.9C351.4 397.8 359.2 412.8 359.2 436.3C359.2 470 358.9 511.7 358.9 519.9C358.9 526.4 363.5 534.3 376.2 532C476.2 498.8 544 403.9 544 293C544 154.3 431.5 49 292.8 49ZM145.2 393.9C143.9 394.9 144.2 397.2 145.9 399.1C147.5 400.7 149.8 401.4 151.1 400.1C152.4 399.1 152.1 396.8 150.4 394.9C148.8 393.3 146.5 392.6 145.2 393.9ZM134.4 385.8C133.7 387.1 134.7 388.7 136.7 389.7C138.3 390.7 140.3 390.4 141 389C141.7 387.7 140.7 386.1 138.7 385.1C136.7 384.5 135.1 384.8 134.4 385.8ZM166.8 421.4C165.2 422.7 165.8 425.7 168.1 427.6C170.4 429.9 173.3 430.2 174.6 428.6C175.9 427.3 175.3 424.3 173.3 422.4C171.1 420.1 168.1 419.8 166.8 421.4ZM155.4 406.7C153.8 407.7 153.8 410.3 155.4 412.6C157 414.9 159.7 415.9 161 414.9C162.6 413.6 162.6 411 161 408.7C159.6 406.4 157 405.4 155.4 406.7Z" fill="white"/>
</svg>
